@startuml
'https://plantuml.com/sequence-diagram
skinparam groupInheritance 2

' arrows with one dash display horizontally
' arrows with two dashes display vertically
namespace requests {
.Square_Request <|- .Catalog_Request
.Catalog_Request <|-- .Catalog_Search_Objects_Super
.Catalog_Search_Objects_Super <|-- .Catalog_Search_Cross_Reference
.Catalog_Search_Objects_Super <|-- .Catalog_Search_Filter

.Catalog_Request <|-- .Catalog_Delete
.Catalog_Request <|-- .Catalog_Info
.Catalog_Request <|-- .Catalog_List
.Catalog_Request <|-- .Catalog_Retrieve
.Catalog_Request <|-- .Catalog_Upsert
.Catalog_Request <|-- .Catalog_Search_Items
.Catalog_Request <|-- .Catalog_Upsert
}
abstract class Square_Request{
super of ALL other Request classes.
}

abstract class Catalog_Request {
super: Square_Request
this._api_name: "catalog"
}

class Catalog_Delete {
super: Catalog_Request
this._method: "POST"
this._endpoint: "/batch-delete"
this._body.object_ids: []
==
Simple Getters
==
Simple Setters
==
Public Methods

+delete(id)
..
adds id to object_ids array

+effacer(id)
+nix(id)
+disintigrate(id)
 ..
 Aliases of delete()

==
Make Methods

+ make()
==
Square Docs
[[https://developer.squareup.com/reference/square/catalog-api/batch-delete-catalog-objects Catalog Delete]]
==
}

class Catalog_Info {
super: Catalog_Request
this._method: "GET"
this._endpoint: "/info"
this._standard_unit_descriptions;
this._standard_unit_json = [];
this._language_code;
this._limits;
==
Simple Getters
==
Simple Setters
==
Complex Setters (Computed Properties)

+ delivery()
..
Checks for presence of standard units
Adds them to their own array if present
Sets other properties as well.

==
Private Methods

#convertToJson()
...
Stringifies standard unit description in Response

==
==
Make Methods

+ make()
==
Square Docs
[[https://developer.squareup.com/reference/square/catalog-api/catalog-info Catalog Info]]
==
}


class Catalog_List {
super : Catalog_Request
this._method: "GET"
this._endpoint: "/list"
this._query_params
_query_params.catalog_version
_query_params.types
this._delivery
==
Simple Getters
==
Simple Setters
==
Complex Setters (Computed Properties)

+types(str)
..
concatenates types into a CSV list
==
Private Methods

+#enum_types()
==
==
Make Methods

+ make()
==
Square Docs
[[https://developer.squareup.com/reference/square/catalog-api/list-catalog Catalog List]]
==
}

class Catalog_Retrieve {
super: Catalog_Request
this._method: "POST"
this._endpoint: "/batch-retrieve"
this._body
body.object_ids: []
==
Simple Getters
==
Simple Setters
==
Public Methods

+retrieve(id)
+get(id) - alias of retrieve()

==
==
Make Methods

+ make()
==
Square Docs
[[https://developer.squareup.com/reference/square/catalog-api/batch-retrieve-catalog-objects Catalog Retrieve]]
==
}

class Catalog_Search_Items{
super: Catalog_Request
this._method: "POST"
this._endpoint: "/search-catalog-items"
this._attribute_filter: {}
this._body
cursor: undefined,
body.limit: 100,
body.sort_order: str "ASC" or "DESC"
body.text_filter: str
body.product_types:  ["REGULAR", "APPOINTMENTS_SERVICE"]
body.stock_levels:  ["OUT", "LOW"]
body.category_ids:  [ ids ]
body.enabled_location_ids:  [ ids ]
body.custom_attribute_filters: [ {}, {}] max 10

==
Simple Getters
==
Simple Setters
==
Complex Setters (Computed Properties)
+ stock_levels(level)
==
Private Methods

+#init_filter()
...
initializes this._attribute_filter

+#enum_sort_order()
+#enum_product_type()
+#enum_stock_levels()
==
Make Methods

+ make()
+ make_custom_attribute_filter()
==
Square Docs
[[https://developer.squareup.com/reference/square/catalog-api/search-catalog-objects Catalog Search]]
==
}



class Catalog_Upsert {
super: Catalog_Request
this._method: "POST"
this._endpoint: "" //empty
this._idempotency_key
this._delivery
this._body
..
-idempotency_key
-batches: [ ]
..
+{ objects: [ ] }
batches is an array, holding an object,
holding an array where you put more objects.
Really. (Square's idea, not mine)
==
Getters
==
Setters
==
Public Methods

+add( fardel )
..
adds objects to body
==
Make Methods

+ make()
==
Square Docs
[[https://developer.squareup.com/reference/square/catalog-api/batch-upsert-catalog-objects Catalog Upsert Batch]]
==
}







abstract class Catalog_Search_Objects_Super {
super: Catalog_Request
this._method: "POST"
this._endpoint: "/search"
this._body
body.cursor:
body.include_related_objects: boolean
body.begin_time:RFC 3339
body.object_types:
body.query: {},
==
Simple Getters
==
Simple Setters
==
Complex Setters (Computed Properties)
+ object_types()
==
Public Methods

+queryReset() => {}}
+queryRemove() => undefined
..
sets body.query to empty object

+concat_object_types()
==
}

class Catalog_Search_Cross_Reference{
#_ids: []
super: Catalog_Search_Objects_Super
this._body
==
Simple Getters
==
Simple Setters
==
==
Private Methods

+ #init_query_array()
==
Public Methods

+variations()
+items()
+modifiers()
+taxes()
+ concat_variations()
+ concat_items()
+ concat_modifiers()
+ concat_taxes()
==
Make Methods

+ make()
==
Square Docs
[[https://developer.squareup.com/reference/square/catalog-api/search-catalog-objects Catalog Search]]
==
}


class Catalog_Search_Filter {
super: Catalog_Search_Objects_Super
this._method: "POST"
this._endpoint
this.configuration
this._body
==
Simple Getters
==
Simple Setters
==
Complex Setters (Computed Properties)
==
Private Methods

+ #init_set_query()
+ #init_text_query()
+ #init_sorted_attribute_query()
+ #build_range_query()
==
Public Methods

+text_query_remove()
+concat_text_query()
==
==
Make Methods

+ make()
+ make_sorted_attribute_query()
+ make_set_query()
==
Square Docs
[[https://developer.squareup.com/reference/square/catalog-api/search-catalog-objects Catalog Search]]
==
}


@enduml